Coordinates
version=1
nRows=16
nColumns=36
inDegrees=yes

Units are S.I. units (second, meters, Newtons, ...)
If the header above contains a line with 'inDegrees', this indicates whether rotational values are in degrees (yes) or radians (no).

endheader
time	pelvis_tilt	pelvis_list	pelvis_rotation	pelvis_tx	pelvis_ty	pelvis_tz	hip_flexion_r	hip_adduction_r	hip_rotation_r	knee_angle_r	knee_angle_r_beta	ankle_angle_r	subtalar_angle_r	mtp_angle_r	hip_flexion_l	hip_adduction_l	hip_rotation_l	knee_angle_l	knee_angle_l_beta	ankle_angle_l	subtalar_angle_l	mtp_angle_l	lumbar_extension	lumbar_bending	lumbar_rotation	arm_flex_r	arm_add_r	arm_rot_r	elbow_flex_r	pro_sup_r	arm_flex_l	arm_add_l	arm_rot_l	elbow_flex_l	pro_sup_l
      0.70000000	      0.19348451	      5.32562699	     -3.16961225	      0.66353147	      0.92084076	     -0.21945959	    -16.45281780	     -2.11849844	      4.36555086	     30.51664769	      0.53261598	     -6.04146971	    -24.24321498	     -7.27080804	     24.63431411	      2.85327298	     -2.51063062	     22.66328651	      0.39554897	     -2.49342346	    -12.91678275	     -7.27080804	     -9.73979716	    -25.20405825	      6.82793955	      7.36003911	     -3.08026260	     11.98553805	     35.18044730	    110.42698494	      1.75412627	    -11.83832365	    -17.44013882	     23.35476226	    102.41615142
      0.71000000	      0.37944475	      5.60207642	     -3.08733865	      0.67685111	      0.92306212	     -0.22098897	    -14.78488070	     -2.59668622	      3.44881078	     34.50750763	      0.60226962	     -8.38144628	    -24.32766951	     -7.27382251	     23.73835380	      3.38365006	     -2.28235506	     23.16958050	      0.40438547	     -1.34635962	    -13.10028654	     -7.27382251	    -10.01118013	    -25.78692914	      6.57193304	      7.09747593	     -2.88914959	     12.33310261	     35.18928256	    110.51079337	      1.92140149	    -11.91835454	    -17.68856171	     23.36632095	    102.33240947
      0.72000000	      0.36239140	      5.65276304	     -3.03136248	      0.68966710	      0.92495818	     -0.22248699	    -12.73585554	     -2.81312136	      2.76519277	     38.53530027	      0.67256787	    -10.78059093	    -25.19197511	     -7.27826915	     23.05669693	      3.62936803	     -2.10511458	     23.61949550	      0.41223796	     -0.23700763	    -13.03754520	     -7.27826915	    -10.04116785	    -26.06489702	      6.36997456	      6.85709706	     -2.86319811	     13.02381002	     35.16861459	    110.65502436	      2.05630868	    -11.88118591	    -18.15182003	     23.48432493	    102.20584601
      0.73000000	      0.44619908	      5.67967586	     -3.01584907	      0.70224203	      0.92704728	     -0.22406905	    -10.77831751	     -3.08081339	      2.01801355	     42.32191856	      0.73865682	    -12.60794965	    -25.89395272	     -7.28162394	     22.13528050	      3.86576634	     -1.98913919	     23.79347212	      0.41527443	      0.82564862	    -13.02753677	     -7.28162394	    -10.19202479	    -26.23545670	      6.05659735	      6.68958268	     -2.86124375	     13.71160385	     35.22322154	    110.77805946	      2.14802982	    -11.82199274	    -18.53737900	     23.59959086	    102.11342986
      0.74000000	      0.52952681	      5.64723799	     -3.05930700	      0.71450086	      0.92916691	     -0.22573180	     -8.79446972	     -3.32953564	      1.33255672	     45.85760696	      0.80036623	    -13.69182586	    -26.74217824	     -7.28424763	     21.13260749	      4.03882579	     -1.88938048	     23.78582692	      0.41514100	      1.75787533	    -12.98606800	     -7.28424763	    -10.34194593	    -26.26931614	      5.72900925	      6.56178237	     -2.92865826	     14.40808114	     35.31133531	    110.89210724	      2.22807604	    -11.71019907	    -18.85289150	     23.73637424	    102.04604727
      0.75000000	      0.50042598	      5.54408170	     -3.09241634	      0.72650180	      0.93119688	     -0.22745747	     -6.68555012	     -3.49598093	      0.67405442	     49.09290687	      0.85683286	    -14.12164212	    -27.88034840	     -7.28717003	     20.18040436	      4.11391083	     -1.92164350	     23.58128367	      0.41157104	      2.60956879	    -12.82666721	     -7.28717003	    -10.36227487	    -26.16937436	      5.42253766	      6.44072203	     -3.10678093	     15.28033330	     35.35206873	    111.02095854	      2.30940091	    -11.55280265	    -19.19513361	     23.97669429	    101.98493591
      0.76000000	      0.62273892	      5.34884198	     -3.20234129	      0.73822029	      0.93360109	     -0.22908622	     -4.77467589	     -3.55388432	      0.15686736	     51.90221051	      0.90586446	    -13.89898741	    -28.89115167	     -7.28905834	     18.97887282	      4.08080426	     -1.93934996	     23.23105466	      0.40545839	      3.26031835	    -12.66986629	     -7.28905834	    -10.59091171	    -25.93372314	      5.07942826	      6.43392761	     -3.23185747	     15.87068902	     35.38459831	    111.10367029	      2.43344392	    -11.39699496	    -19.37032885	     24.15906739	    101.95795733
      0.77000000	      0.41334591	      5.29152356	     -3.32779380	      0.74991382	      0.93559040	     -0.23082021	     -2.45568784	     -3.82566813	     -0.46092423	     54.44611700	      0.95026401	    -13.07886707	    -30.02539184	     -7.29191142	     18.05864994	      4.15696221	     -2.19122729	     22.65534242	      0.39541032	      4.03214396	    -12.32433399	     -7.29191142	    -10.32366033	    -25.80129283	      4.81166325	      6.31627009	     -3.43077772	     16.77888041	     35.35576504	    111.22273554	      2.42076453	    -11.21798774	    -19.60581946	     24.45180275	    101.92783675
      0.78000000	      0.26607528	      5.04279050	     -3.49300172	      0.76125241	      0.93778457	     -0.23235732	     -0.23537071	     -3.80209264	     -0.84323247	     56.56950974	      0.98732420	    -11.47947142	    -30.37682684	     -7.30370681	     17.10900831	      3.95331912	     -2.61844923	     22.16621178	      0.38687338	      5.02757116	    -11.35301803	     -7.30370681	    -10.20247626	    -25.43929847	      4.22915536	      6.63729880	     -3.70335725	     18.73970606	     34.80707320	    111.33887732	      2.21539174	    -10.99176536	    -20.37501065	     25.01360362	    101.84993192
      0.79000000	      0.12835316	      4.87994019	     -3.65488093	      0.77251836	      0.94012843	     -0.23397090	      1.94287374	     -3.87858467	     -1.23510259	     58.24771826	      1.01661447	    -10.42617115	    -31.04225276	     -7.30729015	     16.00150965	      3.91967358	     -2.83126615	     21.32987809	      0.37227660	      5.40917747	    -11.03340314	     -7.30729015	    -10.10271960	    -25.11627554	      3.97504874	      6.52448157	     -3.80498754	     18.90969919	     34.73752216	    111.31376939	      2.33953766	    -10.81424061	    -20.34030834	     25.23974657	    101.89067617
      0.80000000	     -0.06677628	      4.65217337	     -3.81284791	      0.78364349	      0.94243689	     -0.23548211	      4.13102175	     -3.81032487	     -1.50771575	     59.50691355	      1.03859157	     -9.16109879	    -31.37759387	     -7.31104123	     14.94538276	      3.79534793	     -3.07984420	     20.45637312	      0.35703106	      5.83920144	    -10.56147047	     -7.31104123	     -9.94294116	    -24.68343750	      3.69124508	      6.40910220	     -3.88325860	     19.00807355	     34.61045928	    111.28835309	      2.45930737	    -10.65222510	    -20.15993723	     25.41305091	    101.95126328
      0.81000000	     -0.18124946	      4.24562023	     -3.92945629	      0.79466194	      0.94494804	     -0.23697443	      6.09908518	     -3.46721474	     -1.71870619	     60.21082944	      1.05087722	     -8.46225522	    -31.72766570	     -7.31224143	     13.77370549	      3.50016119	     -3.22246441	     19.53298044	      0.34091482	      6.09161290	    -10.28028535	     -7.31224143	     -9.91339976	    -23.98557321	      3.28511215	      6.31564502	     -3.97326186	     18.96494273	     34.53643137	    111.27002762	      2.58217030	    -10.45748028	    -20.00165633	     25.50386590	    101.98991692
      0.82000000	     -0.44424592	      4.01713990	     -4.04275352	      0.80564426	      0.94713269	     -0.23847112	      8.21992812	     -3.35795370	     -1.99110878	     60.64436843	      1.05844390	     -7.05949450	    -31.55881885	     -7.31619513	     12.74741724	      3.38857532	     -3.41911695	     18.53041836	      0.32341681	      6.59056630	     -9.47023922	     -7.31619513	     -9.66081541	    -23.49194950	      3.04340741	      6.12197510	     -4.02823248	     18.80249749	     34.24708797	    111.20857995	      2.73747760	    -10.34091618	    -19.46310150	     25.71172917	    102.11120366
      0.83000000	     -0.61528739	      3.53462188	     -4.09510010	      0.81650569	      0.94949596	     -0.23997005	     10.05964221	     -2.87098986	     -2.20352239	     60.50042293	      1.05593158	     -6.50981523	    -31.58527829	     -7.31765245	     11.63006633	      3.02586094	     -3.50000957	     17.55809122	      0.30644650	      6.81036222	     -9.13802418	     -7.31765245	     -9.57382137	    -22.64101140	      2.60194198	      5.97824581	     -4.14247505	     18.65279305	     34.14915662	    111.17398618	      2.88626576	    -10.16143276	    -19.17690546	     25.80049173	    102.17048024
      0.84000000	     -0.64548886	      3.09546437	     -4.09924191	      0.82745888	      0.95199129	     -0.24157685	     11.59826224	     -2.48184622	     -2.51492915	     59.93357377	      1.04603819	     -5.36877702	    -31.12768718	     -7.32296026	     10.30782715	      2.73853183	     -3.55935200	     16.49012271	      0.28780694	      7.28703449	     -8.31138656	     -7.32296026	     -9.64130983	    -21.80178536	      2.19565268	      5.80151107	     -4.19811784	     18.08790203	     33.92930529	    111.06119792	      3.09448642	    -10.10728153	    -18.12023818	     25.82939448	    102.35185495
      0.85000000	     -0.74603378	      2.59124426	     -4.09612327	      0.83827883	      0.95423465	     -0.24326874	     13.15412487	     -1.99159538	     -2.78975488	     59.07840050	      1.03111261	     -4.52912811	    -30.66269183	     -7.33642666	      9.12033391	      2.38011399	     -3.57738241	     15.51963920	      0.27086880	      7.60638700	     -7.67063692	     -7.33642666	     -9.62097644	    -20.82533955	      2.03212457	      5.37638674	     -4.34828856	     17.08561977	     34.02248285	    110.95848590	      3.56763031	    -10.01451619	    -16.28006035	     25.43671654	    102.50930511
